<?xml version="1.0" standalone="no"?>
<!DOCTYPE svg PUBLIC "-//W3C//DTD SVG 1.1//EN" "http://www.w3.org/Graphics/SVG/1.1/DTD/svg11.dtd" >
<!--
2013-9-30: Created.
-->
<svg>
<metadata>
Created by iconfont
</metadata>
<defs>

<font id="iconfont" horiz-adv-x="1024" >
  <font-face
    font-family="iconfont"
    font-weight="500"
    font-stretch="normal"
    units-per-em="1024"
    ascent="896"
    descent="-128"
  />
    <missing-glyph />
    
    <glyph glyph-name="chaxun" unicode="&#58985;" d="M690.15 205.894c-157.673-157.68-414.222-157.68-571.893-0.017-157.676 157.663-157.676 414.186 0 571.849 157.669 157.67 414.218 157.67 571.893 0 157.637-157.663 157.637-414.183 0-571.832zM206.448 689.598C97.37 580.545 97.37 403.085 206.408 294.031 315.445 184.977 492.956 185 601.993 294.048c109.038 109.054 109.038 286.48 0 395.528-109.035 109.052-286.546 109.07-395.544 0.022z m795.084-673.042c29.959-29.958 29.959-78.535 0-108.497l-13.56-13.558c-29.958-29.976-78.518-29.976-108.51 0l-277.994 278c-29.96 29.977-29.96 78.535 0 108.495l13.566 13.576c29.954 29.958 78.553 29.958 108.511 0l277.987-278.016z m0 0"  horiz-adv-x="1025" />

    
    <glyph glyph-name="chaxunliebiao" unicode="&#58986;" d="M168.96 451.38h616.243l0.615-31.54c4.3 0.205 8.192 1.434 12.697 1.434 27.648 0 53.658-5.735 78.848-14.336V668.672H695.501V806.092H47.718v-831.897h562.79c-43.007 48.333-69.836 106.087-69.836 177.357 0 19.66 2.253 38.707 6.144 57.344H169.37V302.08H584.5c17.202 26.829 39.32 49.766 64.511 68.608H169.37l-0.41 80.691z m1.229 64.716v77.21h434.79v-77.21M719.258 805.888v-106.906h157.696L719.258 805.888z m284.262-816.742l-79.667 81.305c18.227 28.467 29.081 62.464 29.081 99.123 0 99.533-78.848 180.43-175.923 180.43s-175.923-80.692-175.923-180.43 78.848-180.428 175.923-180.428c29.901 0 57.344 8.396 82.125 21.708l80.691-82.944 63.693 61.236zM671.949 169.574c0 59.392 47.104 107.725 105.062 107.725S881.87 228.966 881.87 169.574 834.969 61.85 777.01 61.85c-57.958 0-105.062 48.332-105.062 107.724z"  horiz-adv-x="1024" />

    
    <glyph glyph-name="juecexiangtongguoshuai" unicode="&#58987;" d="M152 497.265c0 92.43 33.93 171.675 101.7 237.735 67.905 65.97 150.255 99 247.05 99 96.885 0 179.235-33.03 248.04-99 68.76-66.06 102.69-145.305 102.69-237.735 0-12.24 0-25.47-1.935-38.7-1.935-1.845-1.935-6.57-1.935-8.46l-5.85-31.14c-1.89 0-1.89-2.79-1.89-5.625-3.915-12.285-7.785-22.635-10.665-31.14v-1.89l-1.935-1.89a284.13 284.13 0 0 0-14.535-33.03c0-0.9 0-1.845-1.935-1.845-5.85-12.285-12.6-22.635-20.34-33.03l-23.265-31.14-0.99-0.9-0.945-0.99a304.785 304.785 0 0 0-25.2-24.525s-0.945 0-2.925-1.89c-4.815-2.79-4.815-5.625-9.675-10.35-1.935 0-5.805-0.945-5.805-3.78l-16.47-13.185-3.87-2.835-2.925-1.89a79.515 79.515 0 0 1-23.22-28.305c-4.86-10.35-9.72-17.91-14.535-22.635-4.86-4.725-14.535-6.615-27.135-6.615H370.97c-13.59 0-22.32 1.89-27.135 6.615-4.86 4.725-9.72 12.24-15.525 22.635a126 126 0 0 1-22.275 28.305c-0.945 0-1.935 0-3.87 1.89l-2.925 2.835-17.415 13.185-5.85 3.78-6.75 6.615-5.85 5.625-25.155 24.525-0.945 0.945-0.99 0.945a427.635 427.635 0 0 0-43.605 65.115c-0.945 0-1.935 0-1.935 1.845a379.485 379.485 0 0 0-14.535 33.03c-0.945 0-1.935 0-1.935 1.89v1.89a236.475 236.475 0 0 0-10.665 31.14s0 0.9-0.945 2.79l-0.99 2.835c-1.935 9.45-3.87 19.8-5.805 31.14 0 1.89-1.935 6.615-1.935 8.505a491.175 491.175 0 0 0-1.935 37.71z m206.37-392.4h291.6c16.47 0 29.07-12.24 29.07-28.26 0-16.065-12.6-28.305-29.07-28.305h-291.6a28.17 28.17 0 0 0-29.07 28.305c0 16.965 11.61 28.305 29.07 28.305z m12.6-112.23h263.475l-107.55-52.785a71.55 71.55 0 0 0-52.29 0L370.97-7.365zM532.7 666.15c34.875 0 67.815-13.185 98.82-41.49 31.005-27.36 46.485-61.335 46.485-102.825 0-14.13 12.6-28.305 29.07-28.305a29.385 29.385 0 0 1 29.07 28.35c0 61.29-20.34 109.35-62.01 145.215-41.67 36.765-89.1 54.72-142.425 54.72a28.17 28.17 0 0 1-29.07-28.35c0.99-15.975 13.59-27.315 30.06-27.315z"  horiz-adv-x="1024" />

    
    <glyph glyph-name="jiekouguanli" unicode="&#58988;" d="M932.571 201.143H1024V-91.43H731.429V201.143h91.428V347.429h-256v-146.286h91.429V-91.43H365.714V201.143h91.429V347.429h-256v-146.286h91.428V-91.43H0V201.143h91.429v256h365.714V566.857h-91.429V859.43h292.572v-292.572h-91.429v-109.714h365.714v-256z"  horiz-adv-x="1024" />

    
    <glyph glyph-name="baimingdanguanli" unicode="&#58989;" d="M663.63 651.815c0-98.461-59.076-189.046-149.66-224.492s-196.924-15.754-263.878 51.2-90.584 173.292-55.138 267.815S324.924 896 423.384 896C486.4 896 549.416 868.43 596.678 825.108 640 777.846 663.63 714.83 663.63 651.815z m-27.568-736.492c-31.508 15.754-63.016 35.446-86.647 59.077-23.63 23.63-47.261 55.138-59.077 86.646-15.753 35.446-19.692 70.892-19.692 106.339 0 70.892 27.57 137.846 74.83 189.046-39.384 15.754-82.707 19.692-122.091 23.63-248.123 0-385.97-200.861-385.97-366.276 0-114.216 169.354-118.154 382.031-118.154 90.585 0 177.23 0 240.246 11.815-3.938 0-15.754 3.939-23.63 7.877zM962.954 250.092c-11.816 27.57-27.57 51.2-47.262 74.831-43.323 43.323-102.4 66.954-161.477 66.954-31.507 0-63.015-7.877-90.584-19.692-27.57-11.816-51.2-27.57-74.831-47.262-19.692-19.692-39.385-47.261-51.2-74.83-11.815-27.57-19.692-59.078-19.692-90.585 0-31.508 7.877-63.016 19.692-90.585 11.815-27.57 27.57-51.2 51.2-74.83 19.692-19.693 47.262-39.385 74.83-51.2 27.57-11.816 59.078-19.693 90.585-19.693 31.508 0 63.016 7.877 90.585 19.692 27.57 11.816 51.2 27.57 74.83 51.2 19.693 19.693 35.447 47.262 47.262 74.831 11.816 27.57 19.693 59.077 19.693 90.585-3.939 31.507-11.816 63.015-23.631 90.584z m-51.2-15.754L730.584 53.17l-3.938-3.938h-23.631s-3.938 0-3.938 3.938L588.8 163.446c-3.938 3.939-3.938 7.877-3.938 11.816V179.2c0 3.938 3.938 7.877 3.938 11.815 3.938 3.939 7.877 7.877 11.815 7.877 3.939 0 11.816 0 15.754-3.938l94.523-98.462 169.354 169.354c3.939 3.939 7.877 3.939 11.816 3.939 3.938 0 11.815-3.939 11.815-7.877 15.754-7.877 15.754-19.693 7.877-27.57zM884.185 265.846c3.938 3.939 7.877 3.939 11.815 3.939-3.938 0-7.877 0-11.815-3.939zM710.892 49.231c-3.938 0-3.938 0 0 0-3.938 0-3.938 3.938-7.877 3.938L592.738 163.446c-3.938 3.939-3.938 7.877-3.938 11.816V179.2c0 3.938 3.938 7.877 3.938 11.815-3.938-3.938-3.938-7.877-3.938-11.815v-3.938c0-3.939 3.938-7.877 3.938-11.816L703.015 53.17s3.939-3.938 7.877-3.938c-3.938 0-3.938 0 0 0h15.754-15.754z"  horiz-adv-x="1024" />

    
    <glyph glyph-name="mingdanguanli" unicode="&#58990;" d="M900.8-32.3H566.2c-30.8 0-55.8 25-55.8 55.8V358.1c0 30.8 25 55.8 55.8 55.8h334.6c30.8-0.1 55.7-25 55.8-55.8v-334.6c-0.1-30.8-25-55.7-55.8-55.8z m-250.9 83.7h55.2c14.7 0 27.3 11.1 28.4 25.8 1.2 16.3-11.7 30-27.8 30h-55.2c-14.7 0-27.3-11.1-28.4-25.8-1.2-16.4 11.7-30 27.8-30z m167.3 278.8H650.4c-14.7 0-27.3-11.1-28.4-25.8-1.2-16.3 11.7-30 27.8-30h166.8c14.7 0 27.3 11.1 28.4 25.8 1.2 16.4-11.7 30-27.8 30z m0-111.5H650.4c-14.7 0-27.3-11.1-28.4-25.8-1.2-16.3 11.7-30 27.8-30h166.8c14.7 0 27.3 11.1 28.4 25.8 1.2 16.3-11.7 30-27.8 30zM454.7 387.9v-420.2H77.4c-51.1 188.2 50.6 384.2 234 450.6-105.5 63.7-139.3 200.9-75.6 306.3C299.5 830.1 436.7 863.9 542.1 800.2c105.4-63.7 139.3-200.9 75.5-306.3-35.2-58.4-95.3-97.4-162.9-106z"  horiz-adv-x="1024" />

    
    <glyph glyph-name="moxingliebiao" unicode="&#58991;" d="M128 768h192v-192H128z m256 0h512v-192H384zM128 448h192v-192H128z m256 0h512v-192H384zM128 128h192v-192H128z m256 0h512v-192H384z"  horiz-adv-x="1024" />

    
    <glyph glyph-name="heimingdanguanli" unicode="&#58992;" d="M796.83 381.964q45.805 0 86.52-17.304t71.253-47.84 48.35-71.253 17.813-86.521-17.813-86.521-48.35-71.253-71.253-48.35-86.52-17.813q-46.824 0-87.54 17.813t-71.252 48.35-47.84 71.253-17.305 86.52 17.304 86.522 47.841 71.252 71.253 47.841 87.538 17.304z m110.95-257.527q15.268 0 25.956 9.161t10.688 24.43-10.688 25.956-25.956 10.688H687.915q-15.269 0-25.956-10.688t-10.688-25.956 10.688-24.43 25.956-9.16H907.78z m-407.157-58.02q4.071-20.357 13.232-42.751t26.974-45.296 44.788-45.296 68.707-41.734q-27.483-6.107-64.127-10.179-31.555-4.072-76.342-6.616T411.048-128q-29.519 0-68.199 2.036t-80.413 5.598-82.45 8.652-74.306 10.18-57.002 10.178-29.519 10.18Q8.98-73.035 3.382-31.3t4.58 107.896q6.108 37.662 30.537 57.511t57.511 31.555 68.2 20.867 62.6 26.465q21.375 13.233 33.081 25.956t16.286 24.939 4.58 25.447-1.017 29.519q-2.036 23.411-16.286 37.153T232.917 384q-8.143 7.125-14.76 19.849t-11.705 25.956q-5.09 15.269-10.18 32.573-7.125 2.036-14.25 7.125-6.107 5.09-12.723 14.25t-11.706 26.466q-6.108 17.304-4.58 31.554t5.598 25.448 13.232 21.375q0 38.68 4.072 77.36 4.071 32.573 14.25 70.235t31.555 67.18q19.34 28.502 43.26 46.824t48.35 28.5 49.368 13.742T411.048 896q29.519 0 57.002-7.125t50.895-18.322 41.733-25.448 29.52-28.5q26.464-32.573 38.68-71.762t17.303-74.815q5.09-40.716 5.09-82.45 7.125-5.089 11.197-13.232 4.071-7.125 6.616-18.322t0.509-28.501q-2.036-21.376-8.652-34.1t-14.76-19.848q-9.16-8.144-19.34-11.197-5.09-17.304-10.179-32.573-5.09-13.232-11.705-25.956T590.197 384q-9.16-8.143-14.25-16.286t-8.143-16.287-6.617-17.813-10.688-19.849q-47.84-73.288-55.475-132.326t5.599-115.022z"  horiz-adv-x="1024" />

    
    <glyph glyph-name="jiaoseguanli" unicode="&#58993;" d="M544.622-51.054c-40.229-2.194-80.604-3.218-120.979-3.145-359.497 0-416.182 74.094-416.182 74.094-37.962 168.521 75.483 181.98 201.728 229.156 132.388 47.178 113.517 134.803 88.283 154.99-12.58 6.73-18.87 20.188-25.234 26.99-18.944 20.187-31.452 40.375-37.815 67.291-25.234 0-44.178 20.26-50.469 60.709-6.363 33.646 6.364 67.438 31.598 67.438C215.552 774.729 278.602 896 423.643 896c138.68 0 208.092-121.27 208.092-269.531 25.234-6.803 37.815-40.448 31.524-74.167-6.363-33.646-25.234-60.709-50.468-60.709-6.29-26.916-18.871-47.104-31.452-67.291-6.436-6.803-19.017-20.26-31.597-27.063-21.212-16.97-33.5-81.774 38.473-125.952a36.571 36.571 0 0 1-28.965-14.41 411.355 411.355 0 0 1-21.138-45.933 38.912 38.912 0 0 1 16.603-40.594l12.727-7.827c19.895-13.604 21.724-36.937 20.407-63.268-1.316-26.405-15.14-35.109-36.06-46.446l-13.458-6.436a38.18 38.18 0 0 1-20.626-38.4 373.427 373.427 0 0 1 16.384-47.909 36.206 36.206 0 0 1 10.533-11.118z m466.797 96.549a25.38 25.38 0 0 0 12.142-26.624c-3.51-10.752-7.753-21.212-12.58-31.305a24.064 24.064 0 0 0-26.698-9.509l-9.435 3.072a45.056 45.056 0 0 1-44.47-12.434 49.006 49.006 0 0 1-11.85-46.08l2.926-9.655c2.852-10.313-0.878-21.358-9.216-27.648-9.801-5.12-19.895-9.509-30.355-12.946a24.137 24.137 0 0 0-25.38 12.8l-4.608 9.216a45.934 45.934 0 0 1-39.863 23.405 46.007 46.007 0 0 1-39.79-23.552l-4.608-9.07a24.137 24.137 0 0 0-25.38-12.8 203.922 203.922 0 0 0-30.281 12.947 25.893 25.893 0 0 0-9.143 27.648l2.925 9.801a48.933 48.933 0 0 1-11.922 45.934 45.056 45.056 0 0 1-44.398 12.434l-9.508-2.926a24.064 24.064 0 0 0-26.624 9.509 219.575 219.575 0 0 0-12.58 31.305 25.6 25.6 0 0 0 12.434 26.332l8.777 4.754a48.274 48.274 0 0 1 22.674 41.252 48.274 48.274 0 0 1-22.894 41.253l-8.777 4.827a25.893 25.893 0 0 0-12.288 26.332c3.511 10.752 7.68 21.211 12.434 31.451a23.845 23.845 0 0 0 26.77 9.509l9.436-3.145a45.056 45.056 0 0 1 44.398 12.434 48.933 48.933 0 0 1 11.922 45.934l-2.78 9.8a26.112 26.112 0 0 0 9.144 27.795c9.8 5.12 19.968 9.509 30.427 12.946a24.137 24.137 0 0 0 25.38-12.8l4.609-9.07c8.265-14.628 23.405-23.698 39.79-23.698a45.86 45.86 0 0 1 39.862 23.699l4.608 9.07a24.137 24.137 0 0 0 25.38 12.8c10.387-3.658 20.48-8.046 30.282-12.947 8.265-5.998 12.434-17.554 9.143-27.648l-2.853-9.801a48.933 48.933 0 0 1 11.996-46.007c11.63-11.995 28.525-16.75 44.397-12.434l9.509 2.926a24.064 24.064 0 0 0 26.624-9.509c4.974-10.02 9.143-20.48 12.507-31.232a25.6 25.6 0 0 0-12.36-26.331l-8.778-4.755a48.274 48.274 0 0 1-22.674-41.325 48.274 48.274 0 0 1 22.82-41.18l8.777-4.827zM812.251 2.34c47.616 0 86.163 39.936 86.163 89.234 0 49.298-38.547 89.234-86.163 89.234-47.542 0-86.162-39.936-86.162-89.234 0-49.298 38.62-89.234 86.162-89.234z"  horiz-adv-x="1024" />

    
    <glyph glyph-name="moxingshiyongbaobiao" unicode="&#58994;" d="M108.544 530.432L443.392 360.96c20.992-10.752 46.08-16.384 73.216-16.384 25.6 0 50.176 6.656 73.216 16.384l334.848 169.472c18.944 10.752 31.232 31.232 31.232 52.736 0 23.04-12.288 41.984-31.232 52.736L589.824 805.376c-23.04 12.288-48.64 18.944-73.216 18.944s-50.176-6.656-73.216-16.384L108.544 637.44c-18.944-12.288-31.232-31.232-31.232-54.272-0.512-21.504 12.288-41.984 31.232-52.736z m781.312-107.008L560.64 243.2c-27.136-12.288-58.368-12.288-83.968 0l-332.8 180.224c-20.992 12.288-48.64 4.096-60.928-16.384s-4.096-48.64 16.384-60.928l334.848-180.224c25.6-12.288 52.736-18.944 81.408-18.944 27.136 0 54.272 6.656 83.968 18.944L934.4 346.112c20.992 12.288 27.136 39.424 14.848 60.928-11.776 20.992-37.888 29.696-59.392 16.384z m0-200.704L560.64 42.496c-27.136-12.288-58.368-12.288-83.968 0l-332.8 177.664c-20.992 12.288-48.64 4.096-60.928-16.384-12.288-20.992-4.096-48.64 16.384-60.928l334.848-180.224c25.6-12.288 52.736-18.944 81.408-18.944 31.232 0 58.368 6.656 83.968 18.944L934.4 142.848c20.992 12.288 27.136 39.424 14.848 60.928-10.752 23.04-37.888 29.696-59.392 18.944z"  horiz-adv-x="1024" />

    
    <glyph glyph-name="shouye" unicode="&#58995;" d="M955.8 395.5l-34.5-40.9c-3.2-3.2-7-5.1-11.5-6.4h-1.9c-5.1 0-9 1.3-11.5 3.8L512 673 127.7 352c-4.5-3.2-9-4.5-13.4-3.8-5.1 0.6-9 2.6-11.5 6.4l-34.5 40.9c-3.2 3.8-4.5 8.3-3.8 12.8 0.6 5.1 2.6 9 5.8 12.1l399 332.5c11.5 9.6 26.2 14.7 42.2 14.7 16 0 30.1-5.1 42.2-14.7l136.2-113.2V748.5c0 5.1 1.9 9.6 5.1 12.8 3.2 3.2 7.7 5.1 12.8 5.1h106.8c5.1 0 9.6-1.9 12.8-5.1s5.1-7.7 5.1-12.8v-226.4l121.5-101c3.8-3.2 5.8-7 6.4-12.1-0.8-5.2-2.1-9.6-4.6-13.5z m-124.1-38.3v-266.6c0-9.6-3.8-17.9-10.9-24.9-7-7-15.3-10.9-24.9-10.9H583V268.3H441v-212.9H227.5c-9.6 0-17.9 3.8-24.9 10.9-7 7-10.2 15.3-10.2 24.9V361L512 623.8l319.1-263.4c0.6-0.7 0.6-1.3 0.6-3.2z"  horiz-adv-x="1024" />

    
    <glyph glyph-name="rizhiguanli" unicode="&#58997;" d="M366.8 682.6h290.5c22.8 0 41.4 18.5 41.4 41.4v66.5c0 22.8-18.5 41.4-41.4 41.4H366.8c-22.8 0-41.4-18.5-41.4-41.4V724c0-22.9 18.5-41.4 41.4-41.4zM866.4 757.2H754.6v-112H269.4v112H157.6c-20.7 0-37.5-16.8-37.5-37.5v-746.1c0-20.7 16.8-37.5 37.5-37.5h708.8c20.7 0 37.5 16.8 37.5 37.5V719.7c0 20.7-16.8 37.5-37.5 37.5z m-492.5-627h-97v97h97v-97z m0 261.3h-97v97h97v-97z m332.2-261.3H512c-26.8 0-48.5 21.7-48.5 48.5s21.7 48.5 48.5 48.5h194.1c26.8 0 48.5-21.7 48.5-48.5s-21.7-48.5-48.5-48.5z m0 261.3H512c-26.8 0-48.5 21.7-48.5 48.5s21.7 48.5 48.5 48.5h194.1c26.8 0 48.5-21.7 48.5-48.5s-21.7-48.5-48.5-48.5z"  horiz-adv-x="1024" />

    
    <glyph glyph-name="canshupeizhi" unicode="&#58998;" d="M984.203 348.122H595.864c-21.913 0-39.668-17.819-39.668-39.765v-396.304c0-21.978 17.787-39.765 39.668-39.765h388.34c21.913 0 39.668 17.787 39.7 39.733V308.389a39.797 39.797 0 0 1-39.7 39.733z m-40.18-396.464H632.526V232.09h311.497v-280.433zM765.769 129.432c9.597-9.758 9.469-25.433-0.288-35.03v-0.033a24.697 24.697 0 0 0-34.966 0.288l-36.246 36.886a24.633 24.633 0 0 0 0.192 34.934l0.064 0.064a24.633 24.633 0 0 0 34.902-0.16l0.096-0.096 36.246-36.853zM771.815 98.432a25.273 25.273 0 0 0-35.99 35.35l63.054 63.982a25.209 25.209 0 0 0 35.67-0.895 25.337 25.337 0 0 0 0.32-34.455l-63.054-63.982z m-6.046-83.112a24.761 24.761 0 0 0-35.254-34.743l-36.246 36.854a24.697 24.697 0 0 0 0.192 34.966l0.064 0.064a24.697 24.697 0 0 0 34.998-0.256l36.246-36.885zM771.815-15.68a25.209 25.209 0 1 0-35.99 35.382l63.054 63.982a25.273 25.273 0 1 0 35.99-35.382l-63.054-63.982zM492.31 146.963a228.8 228.8 0 0 0-74.38 17.819 236.414 236.414 0 0 0-75.754 51.73 247.13 247.13 0 0 0-51.058 76.33 234.302 234.302 0 0 0-18.65 92.997c0 32.92 6.27 63.919 18.65 92.838a240.156 240.156 0 0 0 51.122 75.883 237.917 237.917 0 0 0 75.754 51.154 230.783 230.783 0 0 0 92.742 18.682c32.92 0 64.046-6.174 93.286-18.682 29.272-12.413 54.737-29.432 76.299-51.058a241.66 241.66 0 0 0 51.09-75.915c9.02-21.114 14.715-43.347 17.179-66.637h173.167c3.775 14.844 10.333 28.696 20.442 41.364 16.092 20.155 35.51 34.23 58.192 42.293 5.854 2.239 11.516 6.782 16.987 13.756 5.502 7.006 7.486 16.699 6.078 29.175a270.644 270.644 0 0 1-17.051 63.247c-8.478 20.858-18.075 36.437-29.08 46.739a33.43 33.43 0 0 1-21.434 9.853c-8.413 0.768-15.547-0.672-21.37-4.351a141.336 141.336 0 0 0-71.372-12.668c-25.625 1.887-47.218 11.58-64.781 29.175-17.5 17.563-28.185 38.07-31.832 61.583a117.855 117.855 0 0 0 8.766 67.085c1.504 2.88 3.007 7.87 4.415 14.844a24.953 24.953 0 0 1-3.327 19.227c-5.919 9.533-13.756 18.362-23.578 26.424s-20.698 14.652-32.407 19.77a220.738 220.738 0 0 1-35.734 12.093A148.054 148.054 0 0 1 651.21 896c-6.526 0-12.956-3.135-19.13-9.341a74.283 74.283 0 0 1-13.789-18.107 113.76 113.76 0 0 0-41.684-54.449c-19.739-14.268-42.42-21.434-68.077-21.434-24.825 0-46.45 7.55-64.782 22.522-18.267 14.972-31.51 32.47-39.54 52.241a55.696 55.696 0 0 1-11.485 19.259C387.219 892.865 379.765 896 370.2 896c-7.326 0-17.243-1.28-29.624-3.839-12.444-2.56-25.209-6.462-38.453-11.549-13.212-5.118-25.433-11.516-36.79-19.226-11.388-7.742-19.258-16.7-23.609-26.937a24.057 24.057 0 0 1-1.631-15.355c1.055-5.919 2.335-11.005 3.838-15.42 0.736-4.415 1.632-11.74 2.752-22.01a182.893 182.893 0 0 0-7.678-72.012c-3.967-12.86-10.365-23.673-19.195-32.47-18.267-17.66-39.349-28.025-63.15-31.32a132.667 132.667 0 0 0-68.589 8.222 95.43 95.43 0 0 1-18.17 4.35c-5.503 0.8-11.165-0.671-16.956-4.35-7.358-4.415-14.14-11.229-20.346-20.282a181.933 181.933 0 0 1-16.411-30.264 212.825 212.825 0 0 1-11.55-34.102C1.697 557.663 0.193 547.042 0.193 537.476c0-8.669 2.24-17.338 6.622-25.784 4.415-8.478 9.885-13.756 16.476-15.931 21.977-8.83 41.716-22.714 59.31-41.749s26.361-41.364 26.361-67.053c0-24.92-8.83-47.442-26.392-67.629-17.563-20.218-37.334-34.614-59.311-43.444-12.445-4.478-19.739-14.715-22.042-30.839C-0.32 236.282 0.48 225.15 3.39 211.553A211.975 211.975 0 0 1 16.06 171.98c5.502-12.797 11.676-24.601 18.65-35.222 6.91-10.621 14.46-17.34 22.49-20.315 10.237-4.35 20.442-5.086 30.711-2.207a180.27 180.27 0 0 0 47.155 8.83c13.18 0.671 27.096-0.608 41.748-3.84 14.652-3.327 27-10.429 37.302-21.465 16.827-18.427 26.136-38.326 27.992-59.952 1.887-21.658-1.28-40.82-9.341-57.743-5.855-12.413-8.606-22.202-8.222-29.112 0.384-6.974 2.367-12.989 6.046-18.107 5.119-7.326 12.765-14.716 23.002-22.01 10.3-7.358 21.85-13.788 34.646-19.29 12.54-5.375 25.369-9.982 38.453-13.757 12.797-3.71 24.345-5.534 34.582-5.534 8.798 0 16.86 2.047 24.154 6.078 7.358 4.031 12.86 10.43 16.475 19.29 8.062 21.947 22.17 41.141 42.324 57.649 14.716 12.092 30.743 19.642 48.05 22.905V146.963z"  horiz-adv-x="1024" />

    
    <glyph glyph-name="ziduanguanli" unicode="&#58999;" d="M888 208H568a56 56 0 0 0 0 112h320a56 56 0 0 0 0-112z m0 232H568a56 56 0 0 0 0 112h320a56 56 0 0 0 0-112z m0 224H728a56 56 0 0 0 0 112h160a56 56 0 0 0 0-112z m-352 0H392v-448a56 56 0 0 0-112 0V664H136a56 56 0 0 0 0 112h400a56 56 0 0 0 0-112zM144 104h744a56 56 0 0 0 0-112H144a56 56 0 0 0 0 112z"  horiz-adv-x="1024" />

    
    <glyph glyph-name="quanxianguanli" unicode="&#59000;" d="M512 577.434c-35.748 0-64.835-29.087-64.835-64.835 0-35.753 29.087-64.835 64.835-64.835s64.835 29.082 64.835 64.835c0 35.753-29.087 64.835-64.835 64.835z m271.478 204.549c-100.531 0-195.328 32.66-271.478 89.108-76.155-56.448-170.952-89.108-271.478-89.108-34.934 0-71.086 6.477-108.293 19.358v-426.455c0-39.572 14.106-88.16 40.796-140.508 27.76-54.451 69.207-113.04 119.844-169.436 44.974-50.084 97.49-98.565 147.87-136.504 22.155-16.686 40.628-28.913 55.087-37.612a22.072 22.072 0 0 1 23.153 0.23c14.643 9.212 33.31 21.924 55.71 38.948 51.979 39.522 105.81 88.704 151.573 138.502 52.444 57.062 95.257 115.732 123.822 169.666 27.274 51.523 41.692 98.796 41.692 136.714V801.346c-37.212-12.881-73.364-19.363-108.298-19.363z m-230.549-442.01v-186.127a40.934 40.934 0 0 0-81.863 0V339.973c-78.152 18.53-136.469 88.888-136.469 172.626 0 97.818 79.58 177.398 177.398 177.398 97.817 0 177.398-79.58 177.398-177.398 0.005-83.732-58.312-154.097-136.464-172.626z"  horiz-adv-x="1024" />

    
    <glyph glyph-name="zhanghuguanli" unicode="&#59001;" d="M130.133 317.867H204.8c74.667 0 74.667 155.733 74.667 196.266 0 119.467-217.6 119.467-217.6 0C57.6 473.6 57.6 317.867 130.133 317.867z m324.267 57.6h115.2c115.2 0 115.2 232.533 115.2 290.133 0 177.067-339.2 177.067-339.2 0-2.133-55.467-2.133-290.133 108.8-290.133z m369.067-57.6H896c74.667 0 74.667 155.733 74.667 196.266 0 119.467-217.6 119.467-217.6 0-4.267-40.533-4.267-196.266 70.4-196.266zM979.2 166.4c-44.8 44.8-134.4 66.133-217.6 61.867 32-12.8 66.133-32 85.333-57.6C883.2 134.4 900.267 72.533 908.8 27.733H1024s0 93.867-44.8 138.667z m-934.4 0C0 121.6 0 27.733 0 27.733h115.2c8.533 44.8 25.6 106.667 61.867 142.934 21.333 25.6 49.066 40.533 81.066 53.333C179.2 232.533 89.6 215.467 44.8 166.4z m204.8 4.267c-66.133-70.4-66.133-204.8-66.133-204.8h659.2s0 134.4-66.134 204.8c-113.066 115.2-411.733 119.466-526.933 0z"  horiz-adv-x="1024" />

    
    <glyph glyph-name="jiekoutiaoyongbaobiao" unicode="&#59002;" d="M969.874 896H54.126A54.126 54.126 0 0 1 0 841.874v-915.748C0-103.717 24.283-128 54.126-128h915.748A54.126 54.126 0 0 1 1024-73.874V841.874A54.126 54.126 0 0 1 969.874 896zM762.807 573.147h-25.38c-1.098-42.422-5.413-75.849-17.701-105.837-14.848-36.425-41.838-63.635-79.726-88.43-34.304-22.528-56.905-41.984-71.46-66.706-14.19-23.772-22.455-54.93-23.114-104.01v-72.338c39.57-12.727 66.56-49.371 66.926-90.99a99.182 99.182 0 1 0-125.44 92.892 161.426 161.426 0 0 1-20.114 61.66c-14.629 24.722-37.303 44.178-71.534 66.706-37.888 24.722-64.95 52.077-79.726 88.356-13.458 33.06-17.335 70.437-17.993 119.223a62.245 62.245 0 0 0-36.425 56.613 64.439 64.439 0 0 0 128.95 0 62.39 62.39 0 0 0-36.205-56.247c0.585-46.08 4.681-77.02 13.897-99.109 10.24-24.137 25.82-41.325 59.1-63.415a341.61 341.61 0 0 0 62.244-49.956V709.705h-37.815L517.486 819.42l65.828-109.714h-37.888v-336.53a336.75 336.75 0 0 0 62.976 50.761c33.207 22.09 48.787 39.35 59.027 63.415 8.411 19.822 12.58 46.811 13.75 85.577h-24.43V676.791h106.058v-103.644z"  horiz-adv-x="1024" />

    
    <glyph glyph-name="tiaodurenwu" unicode="&#59003;" d="M859.683 719.02h-93.721v-153.724H256.304V719.02h-92.009c-19.224 0-34.809-15.584-34.809-34.809v-714.359c0-19.224 15.584-34.809 34.809-34.809h695.388c19.224 0 34.809 15.584 34.809 34.809V684.211c-0.001 19.224-15.585 34.809-34.809 34.809z m-77.267-298.044L480.779 51.665c1.376-4.58-5.432-5.267-10.012-1.526L251.301 229.852c-4.58 3.74-5.267 10.549-1.526 15.13l36.613 44.827c3.74 4.58 10.548 5.267 15.129 1.526l166.537-137.827 257.996 315.88c3.74 6.385 10.549 7.071 15.13 3.331l42.542-34.746c4.579-3.742 7.214-7.242-1.306-16.997zM642.561 763.818v28.249c0 28.717-23.28 51.997-51.997 51.997H433.162c-28.717 0-51.997-23.28-51.997-51.997v-28.249h-61.132v-140.193h382.479V763.818h-59.951z m-130.442-88.577c-31.674 0-57.352 25.678-57.352 57.352 0 31.674 25.678 57.352 57.352 57.352s57.352-25.678 57.352-57.352c0-36.314-25.678-57.352-57.352-57.352z"  horiz-adv-x="1024" />

    
    <glyph glyph-name="tiaodujiankong" unicode="&#59004;" d="M96 864h832a64 64 0 0 0 64-64v-608a64 64 0 0 0-64-64H96a64 64 0 0 0-64 64V800a64 64 0 0 0 64 64z m262.528-415.36l59.456 119.552 132.8-243.584c25.6-46.848 84.224-49.28 115.2-6.208L747.52 432H832a48 48 0 1 1 0 96H722.944a48 48 0 0 1-38.976-19.968l-70.4-97.984-140.352 257.28c-26.752 49.088-89.088 48.32-114.176-2.048l-73.216-147.2h-76.8a48 48 0 0 1 0-96H315.52a48 48 0 0 1 43.008 26.624zM224 32h576a64 64 0 0 0 0-128H224a64 64 0 0 0 0 128z"  horiz-adv-x="1024" />

    
    <glyph glyph-name="shujuguanli" unicode="&#59005;" d="M355.2 470.4c195.2 0 355.2 57.6 355.2 131.2V707.2c0 73.6-160 131.2-355.2 131.2S0 780.8 0 707.2v-105.6c0-70.4 160-131.2 355.2-131.2z m169.6-297.6c-51.2-9.6-108.8-16-172.8-16C160 156.8 0 214.4 0 288v-156.8C0 57.6 160 0 355.2 0c73.6 0 140.8 9.6 195.2 22.4-19.2 35.2-28.8 73.6-28.8 115.2 0 9.6 3.2 22.4 3.2 35.2zM710.4 374.4V524.8c0-73.6-160-131.2-355.2-131.2S0 451.2 0 524.8V368c0-73.6 160-131.2 355.2-131.2 73.6 0 144 9.6 201.6 22.4 32 57.6 86.4 99.2 153.6 115.2z m227.2-201.6h-19.2c-9.6 0-16 6.4-19.2 16l-9.6 25.6c-3.2 6.4-3.2 19.2 3.2 22.4l12.8 12.8c6.4 6.4 6.4 16 0 22.4l-22.4 22.4c-6.4 6.4-16 6.4-22.4 0L848 281.6c-6.4-6.4-16-6.4-25.6-3.2L800 288c-6.4 3.2-16 12.8-16 19.2v19.2c0 9.6-6.4 16-16 16h-28.8c-9.6 0-16-6.4-16-16v-19.2c0-9.6-6.4-16-16-19.2l-25.6-9.6c-6.4-3.2-19.2-3.2-22.4 3.2l-12.8 12.8c-6.4 6.4-16 6.4-22.4 0L608 272c-6.4-6.4-6.4-16 0-22.4l12.8-12.8c6.4-6.4 6.4-16 3.2-22.4l-9.6-25.6c-3.2-6.4-12.8-16-19.2-16H576c-9.6 0-16-6.4-16-16V128c0-9.6 6.4-16 16-16h19.2c9.6 0 16-6.4 19.2-16l9.6-25.6c3.2-6.4 3.2-19.2-3.2-25.6l-12.8-6.4c-6.4-6.4-6.4-16 0-22.4l22.4-22.4c6.4-6.4 16-6.4 22.4 0l12.8 12.8c6.4 6.4 16 6.4 22.4 3.2l25.6-9.6c6.4-3.2 16-12.8 16-19.2v-19.2c0-9.6 6.4-16 16-16h28.8c9.6 0 16 6.4 16 16v19.2c0 9.6 6.4 16 16 19.2l25.6 9.6c6.4 3.2 19.2 3.2 25.6-3.2l12.8-12.8c6.4-6.4 16-6.4 22.4 0l22.4 22.4c6.4 6.4 6.4 16 0 22.4l-12.8 12.8c-6.4 6.4-6.4 16-3.2 25.6l9.6 25.6c3.2 6.4 12.8 16 19.2 16h19.2c9.6 0 16 6.4 16 16V160c-9.6 6.4-16 12.8-25.6 12.8M832 144c0-41.6-35.2-76.8-76.8-76.8-41.6 0-76.8 35.2-76.8 76.8 0 41.6 35.2 76.8 76.8 76.8 44.8 0 76.8-35.2 76.8-76.8"  horiz-adv-x="1024" />

    
    <glyph glyph-name="moxingpeizhi" unicode="&#59009;" d="M1157.065 129.088h-111.996V383.275c0 50.326-33.352 91.183-74.636 91.183h-345.2V640.79H727.93c20.642 0 37.36 20.471 37.36 45.634V850.366C765.207 875.529 748.489 896 727.847 896H466.58c-20.557 0-37.36-20.471-37.36-45.634v-163.943c0-25.163 16.803-45.634 37.36-45.634h102.698v-166.33H223.992c-41.199 0-74.636-40.773-74.636-91.099v-254.272H37.36C16.718 129.088 0 108.616 0 83.453v-165.222c0-25.162 16.718-45.634 37.36-45.634h261.268c20.556 0 37.36 20.472 37.36 45.634V83.453c0 25.163-16.804 45.635-37.36 45.635h-93.402V337.726c0 50.326 14.757 68.323 56.041 68.323h307.925v-277.132H466.494c-20.642 0-37.36-20.472-37.36-45.634V-81.94c0-25.163 16.718-45.635 37.36-45.635H727.59c20.642 0 37.36 20.472 37.36 45.635V83.453c0 25.163-16.718 45.635-37.36 45.635H624.977V406.22h307.925c41.284 0 56.04-17.998 56.04-68.409v-208.638h-93.4c-20.557 0-37.36-20.472-37.36-45.634v-165.222c0-25.163 16.803-45.635 37.36-45.635h261.267c20.642 0 37.36 20.472 37.36 45.635V83.453c0.17 25.163-16.462 45.635-37.104 45.635z"  horiz-adv-x="1194" />

    
    <glyph glyph-name="tongjifenxi" unicode="&#59010;" d="M239.952 390.976c72.552 61.384 80.92 66.968 172.992 145.096l13.952 11.16 72.544-89.28c5.576-5.584 11.16-11.168 16.736-13.952 19.528-22.32 55.816-22.32 78.136-2.8l184.152 167.416a57.016 57.016 0 0 1 55.808-44.64c30.688 0 55.816 25.112 55.816 55.8V792.768h-173c-30.696 0-55.816-25.112-55.816-55.808 0-25.12 16.744-44.64 39.072-53.016L560.832 558.392l-66.968 80.912c-27.904 36.272-80.92 41.848-117.184 11.16C248.328 544.44 248.328 544.44 167.416 477.472c-25.112-19.52-27.904-55.8-8.376-78.128 19.528-25.112 55.8-27.904 80.912-8.368zM968.184 61.728H856.592V457.944c0 30.688-25.12 55.8-55.808 55.8s-55.816-25.112-55.816-55.8v-396.216H666.84v251.12c0 30.688-25.112 55.808-55.8 55.808-30.696 0-55.808-25.12-55.808-55.808V61.72h-80.904V382.6c0 30.696-25.112 55.808-55.8 55.808-30.696 0-55.808-25.112-55.808-55.808v-320.872h-80.904V223.56c0 30.688-25.12 55.808-55.808 55.808-30.696 0-55.808-25.12-55.808-55.808v-161.832h-58.592V762.072c0 30.696-25.12 55.808-55.808 55.808C25.112 817.872 0 792.768 0 762.072v-811.944h968.184c30.704 0 55.816 25.104 55.816 55.808 0 30.688-25.112 55.792-55.816 55.792z"  horiz-adv-x="1024" />

    
    <glyph glyph-name="xinxichaxun" unicode="&#59011;" d="M589.397 422.118a208.307 208.307 0 0 1 42.957 127.02c0 115.549-93.67 209.228-209.229 209.228-115.541 0-209.22-93.68-209.22-209.229 0-115.55 93.67-209.22 209.22-209.22 43.648 0 84.182 13.363 117.71 36.224l40.712-40.713a33.425 33.425 0 1 1 47.274 47.275l-39.424 39.415z m221.04-379.682H212.88c-23.279 0-42.445 19.166-42.445 42.445 0 23.27 19.166 42.436 42.445 42.436h597.555c23.28 0 42.445-19.166 42.445-42.436 0.683-23.279-18.483-42.445-42.445-42.445z m171.127 768c23.27 0 42.436-19.166 42.436-42.436v-853.564c0-23.27-19.166-42.436-42.436-42.436H128C57.498-128 0-70.502 0 0V768C0 838.502 57.498 896 128 896h683.119c23.279 0 42.445-19.166 42.445-42.436v-598.93c0-23.278-19.166-42.444-42.445-42.444H128c-23.27 0-42.436-19.166-42.436-42.436v-170.437c0-23.27 19.166-42.436 42.436-42.436h811.119V768c0 23.27 19.166 42.436 42.445 42.436zM423.125 406.758c-78.634 0-142.378 63.744-142.378 142.38s63.744 142.378 142.378 142.378 142.379-63.744 142.379-142.379-63.744-142.379-142.379-142.379z"  horiz-adv-x="1024" />

    
    <glyph glyph-name="xitongguanli" unicode="&#59012;" d="M909.367 89.872l-205.38 202.881c13.593 28.584 20.588 59.865 20.588 91.447 0 117.73-95.044 212.875-212.875 212.875-19.588 0-38.877-2.598-56.867-7.695l91.147-90.847c37.678-38.078 34.88-101.74-6.096-142.617-40.776-40.676-104.839-43.574-142.517-6.096l-90.947 91.446a215.798 215.798 0 0 1-7.695-57.066c0-117.931 95.444-213.575 213.075-213.575 32.381 0 63.763 7.396 91.147 20.788l204.28-203.281c26.185-25.585 69.66-24.086 97.743 4.397 27.883 27.784 29.882 71.758 4.397 97.343zM854.2 7.221c-19.788 0-36.578 16.19-36.578 36.279 0 19.488 16.79 35.479 36.578 35.479 19.989 0 36.08-15.99 36.08-35.48 0-20.088-16.091-36.278-36.08-36.278z m104.34 471.523H937.75l-48.472 0.4h-0.3c-9.694 0.9-18.989 4.398-27.084 9.595-0.5 0-0.8 0.2-1.1 0.7-17.889 11.692-28.583 31.78-28.283 53.168 0 6.996 1.4 13.292 3.598 19.888a53.617 53.617 0 0 0 10.194 19.489l10.694 10.994 24.186 23.886 14.291 14.491c20.688 26.684 20.688 64.962-0.8 91.846L853.1 765.876c-27.684 21.188-65.861 21.887-92.845 1.3l-15.292-14.492-33.68-34.58h-0.4c-18.389-14.891-43.774-17.69-64.762-8.495a68.103 68.103 0 0 0-19.988 13.592c-9.994 10.694-16.09 23.686-17.79 37.378V830.54C604.147 864.418 577.263 891.102 542.584 895.1h-59.266c-33.98-3.698-61.464-30.383-66.261-64.163v-69.36c-0.2-1.698-0.9-3.697-1-5.296v-0.6c-0.5-1.699-0.8-3.498-1-4.997-0.699 0-0.699-0.7-0.699-0.7-0.6-1.499-1-3.897-1.799-4.997-0.6-1.998-1.699-3.497-2.498-5.296v-0.2c-3.598-7.496-8.895-14.092-15.391-19.289-10.894-9.394-25.585-15.091-41.376-15.091-14.791 0-28.583 4.997-39.177 13.792l-10.794 10.893-24.086 23.587-14.691 14.89c-26.884 20.589-65.062 20.589-91.946-1.099L130.024 725.2c-21.488-26.684-21.787-64.962-1.3-92.346l14.692-14.391 34.38-34.18c0.7-1.1 1.2-2 1.899-3.099 0.5-0.2 0.9-1.099 1.799-2.198 0.4-0.7 0.9-2 1.499-2.799 0-0.2 1.1-1.299 1.1-1.998 0.699-0.9 1.298-2.399 2.098-3.498 0-0.7 0.2-1.3 0.6-2 0.7-0.899 0.899-2.398 1.898-3.697 0-0.4 0.1-1.1 0.3-1.799 0.2-1.999 1.2-3.498 1.2-5.497 0.5-1.999 0.899-3.698 0.899-5.696 2.698-18.79-3.598-38.478-18.29-52.97a62.533 62.533 0 0 0-37.577-18.189H65.56C31.582 476.046 4.698 448.862 0.9 415.182l-0.2-59.765c3.499-34.38 30.183-61.264 64.063-65.862H85.65l48.371-0.7c1.8-0.2 4.198-0.2 5.797-0.899h1.6c1.498-0.7 2.398-1.1 4.197-1.299 26.884-8.295 45.173-33.18 45.073-61.264 0-14.691-4.997-28.883-13.892-39.877l-10.593-10.294-24.386-23.886-14.592-14.491c-20.388-27.384-20.388-65.462 0.8-92.146l42.375-42.675c26.984-21.388 64.862-21.687 92.346-0.9l14.392 14.392 34.68 34.58c0 0.4 0.3 0.4 0.799 0.7 1.3 1.298 2.698 1.998 3.698 3.297 1.199 0.2 1.399 0.2 2.298 0.9 0.7 0.4 1.8 1.299 2.599 1.999 1.2 0.7 2.698 0.9 3.898 1.499 0.799 0.4 1.299 0.7 1.499 1.1 1.899 0.199 3.098 0.899 5.496 1.498 2.1 0.7 3.498 1.6 4.997 1.6h0.5c1.6 0.399 3.398 0.699 5.297 1.099h0.4c1.499 0 3.098 0 4.397 0.7 17.69 0.699 35.68-5.498 48.772-19.09 10.893-10.493 16.59-24.085 18.489-37.877l-0.2-14.892v-54.268c4.198-34.38 31.382-61.264 65.462-64.762h59.865c34.28 3.498 61.164 30.182 65.861 63.663V-42.15l0.5 34.98V6.62c1.299 12.493 5.796 22.787 12.692 31.981 0.7 1.1 1.3 1.8 2 2.399 0.399 0.2 0.998 1.5 1.998 1.999 3.798 4.197 8.095 7.895 12.792 11.193 1.4 0.2 2.899 1.3 3.698 2 1.1 0.699 1.1 0.699 1.5 0.699 0.699 0.2 1.099 0.2 1.199 0.2 1.199 0.899 2.198 0.899 3.598 1.499l-57.267 57.066c-24.785-7.196-50.97-10.694-78.054-10.694-154.51 0-279.237 125.327-278.737 279.437 0 154.909 125.826 280.136 280.436 279.636 154.41-0.7 279.036-126.026 278.737-280.536-0.1-26.284-3.998-52.27-10.994-75.955l57.666-56.667c2.998 6.796 7.696 12.693 12.893 18.59 5.896 5.696 13.792 10.093 20.987 12.892 5.397 2.398 10.994 4.197 16.29 4.797h69.86c33.88 4.597 60.764 31.481 64.562 65.361v60.365c-3.498 33.88-30.082 61.264-63.763 65.861z m0 0"  horiz-adv-x="1024" />

    
    <glyph glyph-name="mingdanpeizhi" unicode="&#59008;" d="M967.211844 157.848152a39.997986 39.997986 0 0 0-19.918993 61.995979 39.357987 39.357987 0 0 1-44.077985 61.196979 39.117987 39.117987 0 0 0-52.156982 38.317987 39.037987 39.037987 0 0 1-71.355975 23.359992 38.877987 38.877987 0 0 0-64.476978 0 39.037987 39.037987 0 0 1-71.355976-23.359992 39.197987 39.197987 0 0 0-52.157982-38.317987 39.357987 39.357987 0 0 1-44.076985-61.196979 39.997986 39.997986 0 0 0-19.919993-61.995979 39.517986 39.517986 0 0 1 0-75.675974 39.997986 39.997986 0 0 0 19.919993-61.996979 39.357987 39.357987 0 0 1 44.076985-61.196979 39.197987 39.197987 0 0 0 52.157982-38.317987 39.037987 39.037987 0 0 1 71.355976-23.359992 38.877987 38.877987 0 0 0 64.476978 0 39.037987 39.037987 0 0 1 71.355975 23.359992 39.117987 39.117987 0 0 0 52.156982 38.317987 39.357987 39.357987 0 0 1 44.077985 61.196979 39.997986 39.997986 0 0 0 19.919993 61.996979 39.517986 39.517986 0 0 1 0 75.675974zM747.46292 24.574198a95.434967 95.434967 0 1 0 94.475967 95.435967 94.874968 94.874968 0 0 0-94.475967-95.435967zM456.598019 96.010173H182.612113a47.997984 47.997984 0 1 0 0 95.995968h287.185901A279.025905 279.025905 0 0 0 525.074996 288.000108H182.612113a47.997984 47.997984 0 1 0 0 95.994967H644.589955a53.036982 53.036982 0 0 0 23.357992-5.359998 324.302889 324.302889 0 0 0 156.231946 6.959997V847.971916A49.916983 49.916983 0 0 1 772.581911 895.9699H79.977148A49.916983 49.916983 0 0 1 28.620165 847.971916V-79.979766a49.916983 49.916983 0 0 1 51.356983-47.997984h511.013825a279.985904 279.985904 0 0 0-134.392954 223.988923zM182.612113 767.976944H644.589955a49.916983 49.916983 0 0 0 51.276982-47.996984 49.916983 49.916983 0 0 0-51.276982-47.997983H182.612113a49.916983 49.916983 0 0 0-51.356983 47.997983 49.916983 49.916983 0 0 0 51.356983 47.996984z m0-191.989935H644.589955a49.916983 49.916983 0 0 0 51.276982-47.996983 49.916983 49.916983 0 0 0-51.276982-47.997984H182.612113a49.916983 49.916983 0 0 0-51.356983 47.997984 49.916983 49.916983 0 0 0 51.356983 47.996983z"  horiz-adv-x="1024" />

    
    <glyph glyph-name="tiaoduguanli1" unicode="&#59013;" d="M919.2 540.8l-388 277.6c-11.2 8-26.4 8-36.8 0L104 540.8c-12.8-8.8-6.4-28.8 9.6-28.8H192v-496c0-8.8 7.2-16 16-16h608c8.8 0 16 7.2 16 16V512h78.4c15.2 0 21.6 20 8.8 28.8zM280.8 384H332c26.4 74.4 97.6 127.2 180.8 127.2 56.8 0 107.2-24.8 142.4-64l-57.6-32.8c-22.4 20-52.8 32.8-84.8 32.8-47.2 0-88-25.6-110.4-63.2h51.2l-86.4-85.6-86.4 85.6z m412-128c-27.2-74.4-97.6-127.2-180.8-127.2-56 0-106.4 24-141.6 63.2l57.6 32.8c22.4-20 52-32 84-32 47.2 0 88 25.6 110.4 63.2h-51.2l86.4 85.6 85.6-85.6h-50.4z"  horiz-adv-x="1024" />

    
    <glyph glyph-name="pingfencanshufenxi" unicode="&#59007;" d="M64 0h896a64 64 0 0 0 0-128H64a64 64 0 0 0 0 128z m640 256h256a64 64 0 0 0 0-128H704a64 64 0 0 0 0 128z m12.672 620.16l95.552-95.488c26.368-26.432 26.368-69.184 0-95.552l-47.808-47.808L573.312 828.416l47.808 47.808a67.584 67.584 0 0 0 95.552 0z m-191.104-95.424l191.104-191.104-477.76-477.76-191.104 191.04 477.76 477.76zM0 255.104L191.104 64H0V255.104z"  horiz-adv-x="1024" />

    
    <glyph glyph-name="moxingduibifenxi" unicode="&#59014;" d="M1025.52 325.58c1.752 38.918-35.353 53.054-35.353 53.054l-205.143 86.651s0.563 150.482 0 190.976c-0.579 40.812-37.13 54.83-37.13 54.83S585.615 775.747 537.44 799.52c-25.067 12.385-51.277 0-51.277 0s-152.627-67.559-199.828-86.651c-43.13-17.434-42.47-54.83-42.47-54.83v-191.586S109.358 408.305 52.89 386.094C-1.111 364.851 0.42 320.261 0.42 320.261s0.537-152.919 0-192.753c-0.558-43.002 38.328-56.586 38.328-56.586s130.366-65.879 192.753-94.31c46.105-20.992 76.047-0.584 76.047-0.584l204.82 100.813s161.941-76.262 200.147-100.204c44.206-27.72 74.265-4.705 74.265-4.705s180.542 91.48 208.702 104.325c30.11 13.758 30.11 47.74 30.11 47.74s-1.833 162.667-0.071 201.584zM272.17 249.534L84.726 331.776l187.438 82.237 190.976-81.336-190.971-83.144z m210.432-122.025l-180.373-90.183V198.267l180.373 77.798v-148.557z m29.62 442.102l-202.922 86.651 202.921 89.6 210.898-89.6-210.898-86.65z m32.286-53.048l178.59 77.798v-130.852l-178.59-79.554V516.562z m213.115-267.029l-186.568 82.243 178.616 82.237 194.54-82.237-186.588-82.243z m206.018-127.34l-176.86-84.868V198.267l176.86 77.798v-153.871z"  horiz-adv-x="1026" />

    


  </font>
</defs>
</svg>
